<svg width="95" height="95" viewBox="0 0 95 95" fill="none" xmlns="http://www.w3.org/2000/svg">
<rect y="47.5" width="67.1751" height="67.1751" transform="rotate(-45 0 47.5)" fill="black"/>
<path d="M31.8321 57.144C29.6561 57.144 27.9601 56.52 26.7441 55.272C25.5281 54.024 24.9201 52.208 24.9201 49.824V40.2H26.6961V49.752C26.6961 51.704 27.1361 53.16 28.0161 54.12C28.8961 55.08 30.1681 55.56 31.8321 55.56C33.5121 55.56 34.7921 55.08 35.6721 54.12C36.5521 53.16 36.9921 51.704 36.9921 49.752V40.2H38.7201V49.824C38.7201 52.208 38.1121 54.024 36.8961 55.272C35.6961 56.52 34.0081 57.144 31.8321 57.144ZM50.1439 44.28C51.7279 44.28 52.9839 44.744 53.9119 45.672C54.8559 46.584 55.3279 47.92 55.3279 49.68V57H53.6239V49.848C53.6239 48.536 53.2959 47.536 52.6399 46.848C51.9839 46.16 51.0479 45.816 49.8319 45.816C48.4719 45.816 47.3919 46.224 46.5919 47.04C45.8079 47.84 45.4159 48.952 45.4159 50.376V57H43.7119V44.376H45.3439V46.704C45.8079 45.936 46.4479 45.344 47.2639 44.928C48.0959 44.496 49.0559 44.28 50.1439 44.28ZM65.161 57.12C63.945 57.12 62.849 56.848 61.873 56.304C60.897 55.744 60.129 54.976 59.569 54C59.009 53.024 58.729 51.92 58.729 50.688C58.729 49.456 59.009 48.352 59.569 47.376C60.129 46.4 60.897 45.64 61.873 45.096C62.849 44.552 63.945 44.28 65.161 44.28C66.377 44.28 67.473 44.552 68.449 45.096C69.425 45.64 70.185 46.4 70.729 47.376C71.289 48.352 71.569 49.456 71.569 50.688C71.569 51.92 71.289 53.024 70.729 54C70.185 54.976 69.425 55.744 68.449 56.304C67.473 56.848 66.377 57.12 65.161 57.12ZM65.161 55.608C66.057 55.608 66.857 55.408 67.561 55.008C68.281 54.592 68.841 54.008 69.241 53.256C69.641 52.504 69.841 51.648 69.841 50.688C69.841 49.728 69.641 48.872 69.241 48.12C68.841 47.368 68.281 46.792 67.561 46.392C66.857 45.976 66.057 45.768 65.161 45.768C64.265 45.768 63.457 45.976 62.737 46.392C62.033 46.792 61.473 47.368 61.057 48.12C60.657 48.872 60.457 49.728 60.457 50.688C60.457 51.648 60.657 52.504 61.057 53.256C61.473 54.008 62.033 54.592 62.737 55.008C63.457 55.408 64.265 55.608 65.161 55.608Z" fill="white"/>
</svg>
